<svg width="32" height="32" viewBox="0 0 32 32" fill="none" xmlns="http://www.w3.org/2000/svg">
<g clip-path="url(#clip0_101_19768)">
<rect width="32" height="32" rx="16" fill="#F6F6F3"/>
<rect width="64" height="90" transform="translate(-19 -12)" fill="#F7F6F3"/>
<path fill-rule="evenodd" clip-rule="evenodd" d="M14.7914 2.6548C15.669 2.46987 16.5702 2.3548 17.4663 2.38944L17.5354 2.39224C18.2097 2.42039 19.0637 2.48264 19.6519 2.8921C19.6858 2.85664 19.7402 2.83844 19.7895 2.86304C20.4886 3.21148 21.2574 3.46339 21.9935 3.71373C22.7261 3.96283 23.4862 4.12727 24.2541 4.19355C24.543 4.2185 24.7902 4.54428 24.6073 4.83647C24.5638 4.9061 24.5214 4.97643 24.4792 5.04694C24.5498 5.03925 24.6204 5.03132 24.691 5.02386C24.9234 4.99944 25.1555 5.2584 25.1417 5.49465C25.1331 5.64324 25.1178 5.79007 25.0951 5.93514C25.1836 5.9332 25.2715 5.94705 25.3565 5.98457C25.787 6.17437 25.757 6.70974 25.7248 7.11705C25.6801 7.6823 25.4777 8.28101 25.1018 8.70406C25.3825 9.00846 25.5811 9.37199 25.6996 9.80373C25.7856 10.119 25.8334 10.4548 25.8098 10.783L25.8023 10.8812C25.7731 11.2374 25.7151 11.6317 25.4697 11.8879C25.3438 12.02 25.1886 12.0681 25.0407 12.0528C25.1301 12.8736 25.1875 13.699 25.2415 14.5215L25.2668 14.9147C25.3872 16.8156 25.4776 18.729 25.454 20.6331C25.432 22.4125 25.0953 24.1397 24.0502 25.5846C23.0983 26.9002 21.7317 27.8701 20.1857 28.2388C19.3525 28.4378 18.5019 28.4519 17.6586 28.3251C17.2498 28.2634 16.8384 28.1689 16.4504 28.0198C16.021 27.8542 15.7123 27.6106 15.4233 27.2454C15.2867 27.0722 15.3525 26.7035 15.6246 26.7382C16.0362 26.7903 16.412 26.8531 16.8066 26.9802L16.8631 26.9988C17.2561 27.1303 17.6631 27.2284 18.074 27.2701C18.9157 27.3552 19.7702 27.2695 20.5764 27.0029C21.8891 26.5685 23.0197 25.6004 23.7443 24.384C24.6045 22.9421 24.7018 21.3053 24.6893 19.6474C24.676 17.8281 24.6194 16.0078 24.5269 14.1904L24.5111 13.8875C24.4622 12.9523 24.415 12.0164 24.3734 11.0806C24.3605 10.7871 24.3408 10.4912 24.3054 10.1982C23.981 9.99981 23.6904 9.72623 23.5009 9.38866C23.1203 9.55304 22.72 9.67163 22.3517 9.76615C21.4987 9.98525 20.613 10.0384 19.7447 9.90124C19.5105 10.0023 19.2716 10.0911 19.0291 10.1675C18.9635 10.1979 18.898 10.2277 18.8325 10.257C18.2477 10.5182 17.6546 10.7395 17.0374 10.9016L16.8858 10.9411C16.5609 11.0247 16.2081 11.107 15.8624 11.1329C15.8056 11.1558 15.7444 11.1752 15.6774 11.1922C15.3626 11.272 15.0359 11.2973 14.7133 11.2691C14.399 11.2415 14.1718 10.9098 14.345 10.5992C14.4715 10.3726 14.5992 10.1466 14.7279 9.92114C14.2798 10.1161 13.8172 10.2781 13.3505 10.4155C12.8794 10.554 12.4016 10.6709 11.9231 10.7783C11.6673 10.8352 11.4104 10.8857 11.1552 10.9427C10.9725 10.9832 10.6919 11.0043 10.5429 11.13C10.3782 11.2679 10.3316 11.5896 10.2691 11.7881C10.187 12.0458 10.11 12.3047 10.0397 12.5665C9.89981 13.0891 9.78512 13.6192 9.6963 14.1546C9.60747 14.6906 9.54782 15.2319 9.51465 15.775C9.48154 16.3174 9.4961 16.8634 9.44275 17.4035C9.41402 17.69 9.11949 17.8374 8.90192 17.6372C8.8764 17.6137 8.85067 17.59 8.8252 17.566L8.78723 17.5298C8.60109 17.3536 8.42063 17.1669 8.2717 16.9568C8.24472 16.918 8.21886 16.8775 8.19468 16.8364C8.19075 16.8364 8.18737 16.8352 8.18344 16.8323L8.14214 16.7999C7.68746 16.4464 6.92784 15.9857 6.48449 16.5728C6.34322 16.7598 6.27089 16.998 6.21085 17.2278L6.10551 17.639C6.03738 17.9074 5.97326 18.1774 5.93574 18.4521C5.85085 19.0673 5.89358 19.7765 6.29897 20.2697C6.46088 20.4669 6.68407 20.6078 6.93307 20.6448C7.07199 20.6648 7.20916 20.6401 7.3469 20.6219C7.48688 20.6037 7.62175 20.6331 7.76179 20.619C7.98442 20.5961 8.08168 20.8744 7.99848 21.0493C7.9535 21.1433 7.9006 21.2243 7.8405 21.293C7.88879 21.3364 7.93495 21.3834 7.97936 21.4327C8.11092 21.4767 8.22892 21.5712 8.31724 21.6963C8.38864 21.7973 8.42569 21.9071 8.43193 22.0227C8.43974 22.0515 8.44649 22.0808 8.45273 22.1108L8.57334 22.3152C8.59987 22.36 8.6263 22.4043 8.65281 22.4478C8.95977 22.9527 9.30051 23.38 9.72384 23.7828C10.1314 24.1703 10.5738 24.5172 10.9567 24.9329L11.0018 24.9822C11.3588 25.3751 11.7351 25.8506 11.5954 26.4217C11.5594 26.5685 11.3631 26.6742 11.235 26.575C10.8229 26.2556 10.6154 25.7495 10.2658 25.362C9.90594 24.9628 9.50734 24.6041 9.14647 24.2061C8.80517 23.8303 8.53588 23.4047 8.33298 22.9362C8.25197 23.0296 8.13397 23.0959 7.97037 23.1217C7.68927 23.1658 7.42723 22.9937 7.30473 22.7395C7.22597 22.7759 7.14563 22.8088 7.06462 22.8346C6.63848 22.9709 6.37037 22.4759 6.53116 22.1102C6.61712 21.9141 6.72449 21.7438 6.85779 21.6006C6.44115 21.5407 6.01726 21.3159 5.74347 21.0352C5.05653 20.3301 4.96208 19.2705 5.11668 18.3282C5.19876 17.8286 5.34038 17.3231 5.52427 16.854C5.55626 16.7724 5.59061 16.6902 5.62822 16.6092C5.60742 16.6086 5.58606 16.5992 5.57256 16.581C5.44832 16.4037 5.29715 16.2587 5.20489 16.0603C5.12 15.8783 5.02561 15.6939 4.95865 15.5043C4.82097 15.1163 4.75351 14.6783 4.70853 14.2679C4.61577 13.4278 4.65169 12.593 4.77487 11.7581C4.98451 10.3362 5.49093 8.97547 6.23702 7.78146C6.1964 7.75917 6.15747 7.73226 6.12119 7.70044L6.10327 7.68412L6.07415 7.65664C5.86125 7.45545 5.87963 7.07837 6.07415 6.87459L6.13559 6.81028C6.21338 6.72957 6.28046 6.66563 6.40613 6.57776C6.42468 6.56478 6.44362 6.55257 6.46279 6.54118C6.39702 6.41426 6.37419 6.26584 6.42001 6.1021C6.57967 5.53169 7.36562 5.55189 7.86378 5.80064C8.41489 5.287 9.02599 4.8411 9.68837 4.48005C11.2659 3.62056 13.0497 3.02114 14.7914 2.6548ZM6.63687 17.6783C6.93145 17.5779 7.32274 17.7887 7.58753 17.9155C7.92316 18.0763 8.20875 18.3141 8.48535 18.5654C8.62309 18.691 8.64777 18.8965 8.61353 19.072C8.6101 19.0896 8.60679 19.1078 8.60279 19.126C8.56625 19.3133 8.36611 19.4607 8.18902 19.4554C7.81854 19.4448 7.64206 19.1108 7.43231 18.8278C7.40763 18.8736 7.37671 18.9159 7.33842 18.9476L7.31257 18.9687C7.22554 19.0379 7.1296 19.0932 7.0146 19.0879C6.93308 19.0838 6.855 19.062 6.78298 19.0227C6.60308 18.9235 6.52386 18.6804 6.57272 18.4826C6.60308 18.3581 6.67279 18.2607 6.76386 18.1932L6.72992 18.1689C6.65728 18.1161 6.59103 18.0605 6.5394 17.9783L6.52774 17.9589H6.53224C6.47602 17.8579 6.51262 17.7206 6.63687 17.6783Z" fill="black"/>
<path fill-rule="evenodd" clip-rule="evenodd" d="M20.5517 23.5866C20.1366 23.7119 19.6912 23.7231 19.2681 23.5937C18.8844 23.4764 18.4904 23.2182 18.208 22.8764C17.9572 22.5729 17.7947 22.204 17.8011 21.8102C17.8018 21.7653 17.8172 21.7277 17.841 21.6986C17.8665 21.6672 17.9022 21.6457 17.9404 21.6363C17.9798 21.6267 18.0213 21.6301 18.0567 21.6469C18.0888 21.6621 18.1162 21.6878 18.1334 21.7255C18.1768 21.7849 18.22 21.8434 18.2634 21.9003C18.6124 22.3493 18.9503 22.6849 19.4751 22.8053C19.7598 22.8706 20.0441 22.8416 20.305 22.742C20.5843 22.6353 20.8367 22.4477 21.0346 22.2077C21.124 22.0993 21.2295 22.055 21.3327 22.0542C21.4497 22.0534 21.5653 22.11 21.6524 22.2005C21.738 22.2895 21.7953 22.4104 21.8005 22.5369C21.8051 22.6479 21.7703 22.7639 21.6779 22.8673C21.3733 23.2081 20.9787 23.4577 20.5517 23.5866ZM20.5388 17.9629C20.9643 18.2323 21.6125 18.8607 21.1548 19.5287C20.6161 20.1178 19.8405 19.4424 19.4583 19.137C19.1039 18.9002 18.7057 19.5091 19.0345 19.7855C21.7964 21.9163 22.9172 18.0333 20.754 17.646C20.5158 17.6033 20.4274 17.8795 20.5388 17.9629ZM16.5592 16.7771C16.4224 16.686 16.2616 16.6547 16.0833 16.7392C15.944 16.8052 15.6997 17.0253 15.5297 17.3146C15.4133 17.5125 15.3308 17.7447 15.348 17.9866C15.352 18.0427 15.3321 18.0841 15.3007 18.1148C15.2759 18.1389 15.24 18.1567 15.1979 18.1623C15.1622 18.167 15.1222 18.1627 15.0897 18.1522C15.0278 18.132 14.9951 18.0902 14.9827 18.0561C14.8637 17.7266 14.915 17.3589 15.0484 17.0272C15.2285 16.5795 15.5555 16.2046 15.7697 16.0837C16.1363 15.8767 16.5689 15.8672 16.936 16.078C17.2485 16.2575 17.444 16.5472 17.6383 16.8425C17.6796 16.9053 17.7207 16.9676 17.763 17.0288C17.848 17.1515 17.8564 17.2731 17.8235 17.3774C17.7871 17.493 17.6942 17.5905 17.578 17.6416C17.4706 17.6888 17.346 17.6954 17.2357 17.6469C17.1425 17.606 17.057 17.5262 17.0029 17.3907C16.9118 17.1626 16.76 16.9109 16.5592 16.7771V16.7771ZM23.5037 17.2846C23.4101 17.3355 23.3368 17.3508 23.2329 17.3184C23.1755 17.3004 23.1187 17.2659 23.0743 17.2196C23.0302 17.1737 22.9984 17.1166 22.9861 17.0533C22.9557 16.897 22.8736 16.7507 22.7567 16.6553C22.6567 16.5738 22.5305 16.5305 22.3906 16.5549C22.2396 16.5812 22.0957 16.6821 21.9966 16.8011C21.9635 16.8409 21.9375 16.8861 21.9114 16.9311C21.8626 17.015 21.8152 17.0931 21.7478 17.1548C21.7223 17.1783 21.6839 17.1945 21.6466 17.1945C21.6315 17.1945 21.6161 17.192 21.6015 17.1872C21.4512 17.03 21.4222 16.9107 21.4271 16.7925C21.4322 16.6684 21.4791 16.5428 21.5549 16.4257C21.7328 16.1508 22.0706 15.9254 22.2985 15.8744C22.6107 15.8045 22.9206 15.8884 23.1692 16.0701C23.4249 16.257 23.6144 16.5472 23.6735 16.8743C23.6877 16.9531 23.6817 17.0381 23.6529 17.1118C23.6247 17.1838 23.5757 17.2455 23.5037 17.2846ZM17.2476 13.8465C17.0603 14.0367 16.8385 14.0662 16.6142 14.0924C16.4896 14.1071 16.3901 14.1189 16.2922 14.142C16.0231 14.2052 15.7572 14.3006 15.5145 14.4379C15.2608 14.5814 14.9844 14.7545 14.7855 14.9762C14.7382 15.029 14.6936 15.0844 14.649 15.1399C14.6083 15.1905 14.5691 15.2392 14.5277 15.2862C14.4803 15.3401 14.4352 15.3967 14.3904 15.453C14.3626 15.5006 14.3572 15.5123 14.3516 15.5245C14.3432 15.5428 14.3334 15.5633 14.3223 15.5853C14.307 15.6154 14.2891 15.6484 14.2703 15.6782C14.2391 15.7328 14.2224 15.7479 14.2079 15.7546C14.1839 15.7657 14.1612 15.7712 14.1391 15.7683C14.1184 15.7655 14.0989 15.7551 14.0796 15.7381C13.9834 15.6535 13.9551 15.5145 13.958 15.367C13.9624 15.1432 14.0416 14.8953 14.1146 14.743C14.2845 14.389 14.52 14.021 14.8032 13.7568C15.1263 13.4552 15.4799 13.2269 15.886 13.0696C16.1383 12.9718 16.4305 12.882 16.7054 12.8933C16.9033 12.9015 17.0923 12.9628 17.2483 13.1159C17.3441 13.2099 17.3901 13.3435 17.3901 13.4771C17.3901 13.6133 17.3423 13.7504 17.2476 13.8465ZM23.8847 15.5881C23.8728 15.6085 23.8563 15.6225 23.8379 15.6309C23.8187 15.6397 23.7972 15.6423 23.7766 15.6387C23.7561 15.6351 23.7366 15.6254 23.7212 15.6106C23.7063 15.5964 23.695 15.5775 23.69 15.5545C23.5656 14.9853 23.3241 14.5618 22.8087 14.2887C22.5552 14.1543 22.2636 14.069 21.9876 14.0009C21.9074 13.9811 21.8226 13.9683 21.7373 13.9553C21.4698 13.9146 21.2004 13.868 21.026 13.6427C20.921 13.507 20.8769 13.3334 20.9018 13.1747C20.9253 13.0252 21.0091 12.8882 21.1614 12.8061C21.5407 12.6017 22.0121 12.8022 22.3951 12.9731C22.4235 12.9857 22.4514 12.9982 22.4787 13.0102C22.8533 13.1749 23.1949 13.3924 23.4757 13.7034C23.6985 13.9502 23.905 14.315 23.9881 14.6902C24.0573 15.0024 24.041 15.3211 23.8847 15.5881Z" fill="black"/>
<path fill-rule="evenodd" clip-rule="evenodd" d="M15.5197 23.9998C15.9758 22.8862 16.9714 22.0678 18.1176 21.7686C18.9593 21.5495 19.8426 21.5565 20.7006 21.6435C21.1501 21.6887 21.6323 21.7258 22.056 21.8998C22.4178 22.0484 22.7126 22.3293 22.9343 22.6591C23.1981 23.0498 23.3776 23.4971 23.5036 23.9555C23.5215 24.0207 23.5384 24.0863 23.554 24.1523C23.4992 24.4982 23.3829 24.7926 23.0755 25.01C22.7755 25.2224 22.4175 25.3092 22.0607 25.3401C22.0257 25.3226 21.9919 25.3046 21.9609 25.2861C21.4048 24.9544 21.0135 24.1706 20.3117 24.2766C19.6853 24.3714 19.273 25.1926 18.9006 25.6742C17.705 25.8193 16.5103 25.4449 15.5375 24.7325C15.4881 24.4887 15.4852 24.2428 15.5197 23.9998M24.3667 23.155C24.271 22.8754 24.1506 22.6045 24.0078 22.3493C23.5357 21.5054 22.811 20.833 21.9508 20.4486C19.9157 19.5406 17.2826 20.1807 15.6392 21.6699C15.0778 22.179 14.5101 22.9271 14.3385 23.7318C14.2872 23.7423 14.2388 23.7701 14.199 23.8093C13.0116 23.0303 11.7888 22.2808 10.832 21.2009C10.1372 20.4163 9.65387 19.4878 9.35792 18.4675C9.33373 18.3835 9.20376 18.3958 9.2077 18.4887C9.20883 18.5104 9.20995 18.5321 9.21108 18.5538C9.1987 18.5139 9.14019 18.5345 9.13568 18.5732C8.97646 19.8127 8.77729 21.1269 8.96071 22.3728C9.07042 23.1163 9.3945 23.6605 9.82772 24.2482C10.2919 24.8782 10.8174 25.4642 11.3547 26.0261C11.6957 26.3828 12.0518 26.7942 12.4693 27.0557C12.9548 27.3595 13.5057 27.5906 14.0238 27.825C14.551 28.0642 15.0861 28.2852 15.6313 28.4768C16.7211 28.8611 17.8475 29.1268 18.9936 29.2432C19.9112 29.336 20.96 29.4372 21.8394 29.0774C22.5134 28.8018 23.0575 28.3035 23.489 27.7039C23.9588 27.051 24.3302 26.3072 24.5355 25.5229C24.7489 24.7083 24.4116 23.2864 24.3667 23.155" fill="black"/>
</g>
<defs>
<clipPath id="clip0_101_19768">
<rect width="32" height="32" rx="16" fill="white"/>
</clipPath>
</defs>
</svg>
